<svg width="18" height="18" viewBox="0 0 18 18" fill="none" xmlns="http://www.w3.org/2000/svg">
<path d="M8.99999 17.9583C4.05999 17.9583 0.0416565 13.94 0.0416565 9.00001C0.0416565 4.06001 4.05999 0.0416718 8.99999 0.0416718C13.94 0.0416718 17.9583 4.06001 17.9583 9.00001C17.9583 13.94 13.94 17.9583 8.99999 17.9583ZM8.99999 1.29167C4.74999 1.29167 1.29166 4.75001 1.29166 9.00001C1.29166 13.25 4.74999 16.7083 8.99999 16.7083C13.25 16.7083 16.7083 13.25 16.7083 9.00001C16.7083 4.75001 13.25 1.29167 8.99999 1.29167Z" fill="#1D9BF0"/>
<path d="M8.99998 13.2625C7.42332 13.2625 5.97248 12.4708 5.11998 11.1425C4.93332 10.8525 5.01748 10.4675 5.30832 10.28C5.59832 10.0917 5.98498 10.1767 6.17165 10.4683C6.79415 11.4367 7.85165 12.0142 9.00082 12.0142C10.15 12.0142 11.2075 11.4367 11.8308 10.4692C12.0175 10.1775 12.4042 10.0942 12.6942 10.2817C12.9858 10.4683 13.0692 10.855 12.8825 11.145C12.0283 12.4733 10.5775 13.2658 9.00082 13.2658L8.99998 13.2625Z" fill="#1D9BF0"/>
<path d="M11.2817 8.11334C11.9619 8.11334 12.5133 7.56191 12.5133 6.88168C12.5133 6.20145 11.9619 5.65001 11.2817 5.65001C10.6014 5.65001 10.05 6.20145 10.05 6.88168C10.05 7.56191 10.6014 8.11334 11.2817 8.11334Z" fill="#1D9BF0"/>
<path d="M6.7183 8.11334C7.39853 8.11334 7.94997 7.56191 7.94997 6.88168C7.94997 6.20145 7.39853 5.65001 6.7183 5.65001C6.03807 5.65001 5.48663 6.20145 5.48663 6.88168C5.48663 7.56191 6.03807 8.11334 6.7183 8.11334Z" fill="#1D9BF0"/>
</svg>
