<svg width="18" height="18" viewBox="0 0 18 18" fill="none" xmlns="http://www.w3.org/2000/svg">
<path d="M15.4583 0.666672H2.54166C1.50832 0.666672 0.666656 1.50834 0.666656 2.54167V15.4583C0.666656 16.4917 1.50832 17.3333 2.54166 17.3333H15.4583C16.4917 17.3333 17.3333 16.4917 17.3333 15.4583V2.54167C17.3333 1.50834 16.4917 0.666672 15.4583 0.666672ZM2.54166 1.91667H15.4583C15.8025 1.91667 16.0833 2.19751 16.0833 2.54167V10.605L12.8683 7.39001C12.7517 7.27334 12.5933 7.20667 12.4267 7.20667H12.4242C12.2575 7.20667 12.0967 7.27334 11.9808 7.39334L8.38332 11.0467L6.87249 9.54167C6.75582 9.425 6.59749 9.35834 6.43082 9.35834C6.26999 9.33334 6.10166 9.425 5.98499 9.54751L1.91666 13.7017V2.54167C1.91666 2.19751 2.19749 1.91667 2.54166 1.91667ZM1.92166 15.4833L6.43666 10.8717L11.6717 16.0833H2.54166C2.20666 16.0833 1.93582 15.815 1.92166 15.4833ZM15.4583 16.0833H13.4417L9.26916 11.9275L12.4292 8.71917L16.0833 12.3725V15.4583C16.0833 15.8025 15.8025 16.0833 15.4583 16.0833Z" fill="#1D9BF0"/>
<path d="M6.38998 7.20918C7.09967 7.20918 7.67498 6.63386 7.67498 5.92418C7.67498 5.21449 7.09967 4.63918 6.38998 4.63918C5.68029 4.63918 5.10498 5.21449 5.10498 5.92418C5.10498 6.63386 5.68029 7.20918 6.38998 7.20918Z" fill="#1D9BF0"/>
</svg>
