<svg width="18" height="18" viewBox="0 0 18 18" fill="none" xmlns="http://www.w3.org/2000/svg">
<path d="M14.8333 7.74999V6.33333H11.1666V11.6667H12.5833V10H14.25V8.58333H12.5833V7.74999H14.8333ZM8.74998 6.33333H10.1666V11.6667H8.74998V6.33333ZM5.74998 7.66666C6.08331 7.66666 6.49998 7.83333 6.74998 8.08333L7.74998 7.24999C7.24998 6.66666 6.49998 6.33333 5.74998 6.33333C4.24998 6.33333 3.08331 7.49999 3.08331 9C3.08331 10.5 4.24998 11.6667 5.74998 11.6667C6.58331 11.6667 7.24998 11.3333 7.74998 10.75V8.66666H5.41665V9.66666H6.41665V10.1667C6.24998 10.25 5.99998 10.3333 5.74998 10.3333C4.99998 10.3333 4.41665 9.75 4.41665 9C4.41665 8.33333 4.99998 7.66666 5.74998 7.66666Z" fill="#1D9BF0"/>
<path d="M16.0833 0.683334H1.91666C0.883323 0.683334 0.0416565 1.5225 0.0416565 2.55583V15.4783C0.0416565 16.51 0.883323 17.35 1.91666 17.35H16.0833C17.1167 17.35 17.9583 16.51 17.9583 15.4783V2.55583C17.9583 1.5225 17.1167 0.683334 16.0833 0.683334ZM16.7083 15.4783C16.7083 15.82 16.4283 16.1 16.0833 16.1H1.91666C1.57166 16.1 1.29166 15.82 1.29166 15.4783V2.55583C1.29166 2.2125 1.57166 1.93333 1.91666 1.93333H16.0833C16.4283 1.93333 16.7083 2.2125 16.7083 2.55583V15.4783Z" fill="#1D9BF0"/>
</svg>
