<svg width="18" height="18" viewBox="0 0 18 18" fill="none" xmlns="http://www.w3.org/2000/svg">
<path d="M13.6084 5.225L9.4417 1.05833C9.19753 0.814168 8.8017 0.814168 8.55836 1.05833L4.3917 5.225C4.1467 5.46917 4.1467 5.865 4.3917 6.10833C4.6367 6.35167 5.03086 6.35333 5.27503 6.10833L8.37503 3.00833V11.5C8.37503 11.845 8.65503 12.125 9.00003 12.125C9.34503 12.125 9.62503 11.845 9.62503 11.5V3.00833L12.725 6.10833C12.8467 6.23083 13.0067 6.29167 13.1667 6.29167C13.3267 6.29167 13.4867 6.23167 13.6084 6.10833C13.8525 5.86417 13.8525 5.46917 13.6084 5.225Z" fill="#6E767D"/>
<path d="M15.4234 17.2867H2.57669C1.52335 17.2867 0.666687 16.43 0.666687 15.3767V10.6667C0.666687 10.3217 0.946687 10.0417 1.29169 10.0417C1.63669 10.0417 1.91669 10.3217 1.91669 10.6667V15.3767C1.91669 15.7408 2.21252 16.0367 2.57669 16.0367H15.4234C15.7875 16.0367 16.0834 15.7408 16.0834 15.3767V10.6667C16.0834 10.3217 16.3634 10.0417 16.7084 10.0417C17.0534 10.0417 17.3334 10.3217 17.3334 10.6667V15.3767C17.3334 16.43 16.4767 17.2867 15.4234 17.2867Z" fill="#6E767D"/>
</svg>
